<svg width="21" height="21" viewBox="0 0 21 21" fill="none" xmlns="http://www.w3.org/2000/svg">
<path d="M8.94685 5.68752C8.94685 5.68752 8.64498 4.68565 9.42373 3.01877C10.2025 1.3519 11.6331 0.971274 12.4512 1.39127C12.7058 1.51872 12.9151 1.72144 13.0505 1.9719C13.1859 2.22237 13.2409 2.50844 13.2081 2.79127C13.2081 2.79127 14.7525 2.45877 14.9844 3.70127C15.2162 4.94377 14.4375 5.40315 13.4356 5.45127C12.867 5.46803 12.3203 5.67439 11.8825 6.03752L8.94685 5.68752Z" fill="#F0D5A8"/>
<path d="M13.2082 2.80871C13.241 2.52588 13.1859 2.23981 13.0505 1.98934C12.9151 1.73887 12.7059 1.53615 12.4513 1.40871C11.6507 0.997459 10.2332 1.40871 9.47192 2.93558C10.0057 2.42808 10.6269 2.09996 11.2219 2.27058C12.25 2.57246 12.18 3.16746 12.18 3.16746C12.8196 3.01753 13.4925 3.12601 14.0525 3.46933C14.4885 3.73844 14.8024 4.1669 14.9275 4.66371C15.0417 4.36186 15.063 4.03277 14.9888 3.71871C14.7525 2.47621 13.2082 2.80871 13.2082 2.80871Z" fill="#F7E5C6"/>
<path d="M8.94685 5.68752C8.94685 5.68752 8.64498 4.68565 9.42373 3.01877C10.2025 1.3519 11.6331 0.971274 12.4512 1.39127C12.7058 1.51872 12.9151 1.72144 13.0505 1.9719C13.1859 2.22237 13.2409 2.50844 13.2081 2.79127C13.2081 2.79127 14.7525 2.45877 14.9844 3.70127C15.2162 4.94377 14.4375 5.40315 13.4356 5.45127C12.867 5.46803 12.3203 5.67438 11.8825 6.03752L8.94685 5.68752Z" stroke="#45413C" stroke-width="0.4375" stroke-linecap="round" stroke-linejoin="round"/>
<path d="M12.8362 6.40944C12.8362 7.13569 11.7906 8.07194 10.4999 8.07194C9.20932 8.07194 8.1637 7.13569 8.1637 6.40944C8.1637 5.68319 9.20932 5.42944 10.4999 5.42944C11.7906 5.42944 12.8362 5.68757 12.8362 6.40944Z" fill="#BF8256" stroke="#45413C" stroke-width="0.4375" stroke-linecap="round" stroke-linejoin="round"/>
<path opacity="0.15" d="M3.41687 19.7137C3.41687 19.9388 4.16313 20.1547 5.49147 20.3139C6.81981 20.4731 8.62143 20.5625 10.5 20.5625C12.3786 20.5625 14.1802 20.4731 15.5085 20.3139C16.8369 20.1547 17.5831 19.9388 17.5831 19.7137C17.5831 19.4886 16.8369 19.2728 15.5085 19.1136C14.1802 18.9544 12.3786 18.865 10.5 18.865C8.62143 18.865 6.81981 18.9544 5.49147 19.1136C4.16313 19.2728 3.41687 19.4886 3.41687 19.7137Z" fill="#45413C"/>
<path d="M16.2838 18.8126C16.4733 18.7576 16.6397 18.6425 16.7581 18.4847C16.8764 18.3269 16.9403 18.1349 16.9401 17.9376L16.6644 12.1714C16.5201 9.12636 13.8032 6.75073 10.5001 6.75073C7.19693 6.75073 4.48443 9.12636 4.34006 12.1364L4.06006 17.9026C4.06009 18.1004 4.1246 18.2929 4.24381 18.4508C4.36301 18.6087 4.53042 18.7234 4.72068 18.7776C8.47475 20.0095 12.5224 20.0217 16.2838 18.8126Z" fill="#F0D5A8"/>
<path d="M16.73 13.5101L16.6644 12.1364C16.52 9.12636 13.8032 6.75073 10.5 6.75073C7.19691 6.75073 4.48441 9.12636 4.34004 12.1364L4.27441 13.5101C4.66816 10.7276 7.37629 8.60136 10.5 8.60136C13.6238 8.60136 16.3363 10.7276 16.73 13.5101Z" fill="#F7E5C6"/>
<path d="M16.2838 18.8126C16.4733 18.7576 16.6397 18.6425 16.7581 18.4847C16.8764 18.3269 16.9403 18.1349 16.9401 17.9376L16.6644 12.1714C16.5201 9.12636 13.8032 6.75073 10.5001 6.75073C7.19693 6.75073 4.48443 9.12636 4.34006 12.1364L4.06006 17.9026C4.06009 18.1004 4.1246 18.2929 4.24381 18.4508C4.36301 18.6087 4.53042 18.7234 4.72068 18.7776C8.47475 20.0095 12.5224 20.0217 16.2838 18.8126Z" stroke="#45413C" stroke-width="0.4375" stroke-linecap="round" stroke-linejoin="round"/>
<path d="M8.83752 9.01698C8.83752 7.76573 9.58127 6.75073 10.5 6.75073C11.4188 6.75073 12.1669 7.76573 12.1669 9.01698" stroke="#45413C" stroke-width="0.4375" stroke-linecap="round" stroke-linejoin="round"/>
<path d="M13.2081 2.80884C12.4768 2.93403 11.8059 3.29329 11.2963 3.83259L13.2081 2.80884Z" fill="#FF87AF"/>
<path d="M13.2081 2.80884C12.4768 2.93403 11.8059 3.29329 11.2963 3.83259" stroke="#45413C" stroke-width="0.4375" stroke-linecap="round" stroke-linejoin="round"/>
<path d="M10.2156 16.0344V14.5338L9.56807 14.3238C9.33224 14.2478 9.10835 14.1388 8.90307 14C8.71992 13.8725 8.56991 13.703 8.46557 13.5056C8.34466 13.2722 8.2859 13.0115 8.29495 12.7488C8.29003 12.4063 8.37614 12.0687 8.54448 11.7705C8.71282 11.4722 8.95736 11.224 9.25307 11.0513C9.55087 10.8737 9.88382 10.7632 10.2287 10.7275V10.2156C10.2308 10.1874 10.2387 10.1598 10.2519 10.1347C10.2652 10.1097 10.2835 10.0876 10.3057 10.0699C10.3279 10.0522 10.3535 10.0394 10.3809 10.0321C10.4083 10.0248 10.4369 10.0232 10.4649 10.0275C10.5743 10.0275 10.6399 10.0625 10.6662 10.1281C10.6985 10.2329 10.7119 10.3425 10.7056 10.4519V10.7275C11.0717 10.7381 11.4325 10.8183 11.7687 10.9638C11.8808 10.9947 11.9833 11.0535 12.0667 11.1346C12.1501 11.2158 12.2116 11.3166 12.2457 11.4279C12.2797 11.5391 12.2851 11.6572 12.2614 11.771C12.2377 11.8849 12.1856 11.991 12.1099 12.0794C12.0572 12.1438 11.9903 12.1951 11.9144 12.2293C11.8384 12.2635 11.7556 12.2795 11.6724 12.2763C11.5095 12.2662 11.3496 12.2277 11.1999 12.1625C11.0397 12.0984 10.8722 12.0544 10.7012 12.0313V13.23C11.0536 13.3261 11.3987 13.4475 11.7337 13.5931C12.0153 13.7241 12.2592 13.9243 12.4424 14.175C12.6582 14.4861 12.7644 14.8601 12.7443 15.2382C12.747 15.5158 12.6934 15.7911 12.5868 16.0475C12.4875 16.2875 12.3384 16.5037 12.1493 16.6819C11.9595 16.8671 11.737 17.0154 11.4931 17.1194C11.2433 17.2276 10.9771 17.2927 10.7056 17.3119V17.8194C10.6983 17.8729 10.6755 17.9231 10.6399 17.9638C10.6177 17.9842 10.5914 17.9998 10.5628 18.0096C10.5342 18.0194 10.5038 18.0232 10.4737 18.0206C10.3643 18.0206 10.2987 17.9857 10.2681 17.9156C10.2384 17.8134 10.2251 17.7071 10.2287 17.6006V17.3206C9.93468 17.3123 9.64193 17.2786 9.3537 17.22C9.08094 17.1686 8.82176 17.0614 8.59245 16.905C8.49478 16.8446 8.41418 16.7603 8.35828 16.66C8.30239 16.5597 8.27305 16.4467 8.27307 16.3319C8.27284 16.1706 8.33202 16.0148 8.43932 15.8944C8.49416 15.8334 8.56183 15.7852 8.63747 15.7535C8.71311 15.7217 8.79486 15.7071 8.87682 15.7106C9.1007 15.7307 9.32038 15.7837 9.5287 15.8681C9.75146 15.9466 9.98159 16.0023 10.2156 16.0344ZM10.2156 13.0769V12.0488C10.0848 12.0816 9.96632 12.1515 9.87432 12.25C9.78553 12.343 9.73682 12.4671 9.7387 12.5956C9.73674 12.6475 9.74632 12.6991 9.76675 12.7468C9.78718 12.7944 9.81794 12.837 9.85682 12.8713C9.96436 12.959 10.0855 13.0284 10.2156 13.0769ZM10.7012 14.6825V15.995C10.8731 15.9611 11.0279 15.8683 11.1387 15.7325C11.2433 15.6008 11.299 15.4369 11.2962 15.2688C11.2831 15.0107 11.0906 14.8138 10.7012 14.6825Z" fill="#45413C"/>
</svg>
